<?xml version="1.0" encoding="UTF-8"?>
<svg id="Layer_1" data-name="Layer 1" xmlns="http://www.w3.org/2000/svg" viewBox="0 0 1920 1080">
  <defs>
    <style>
      .cls-1 {
        fill: #8c6239;
      }

      .cls-2 {
        fill: #2f2e41;
      }

      .cls-3 {
        fill: #3f3d56;
      }

      .cls-4 {
        fill: #9dd9d2;
      }

      .cls-5 {
        fill: #c69c6d;
      }

      .cls-6 {
        fill: #42210b;
      }

      .cls-7 {
        fill: #c4e8e4;
      }

      .cls-8 {
        fill: #fbb03b;
      }
    </style>
  </defs>
  <g>
    <rect class="cls-4" x="0" y=".79" width="1920" height="1080"/>
    <rect class="cls-7" x="90.27" y="-.79" width="150" height="1080"/>
    <rect class="cls-7" x="699.16" y=".26" width="150" height="1080"/>
    <rect class="cls-7" x="1673.38" y="-.79" width="150" height="1080"/>
    <rect class="cls-7" x="394.72" y=".26" width="150" height="1080"/>
    <rect class="cls-7" x="1029.27" y=".26" width="150" height="1080"/>
    <rect class="cls-7" x="1360.49" y=".26" width="150" height="1080"/>
  </g>
  <g>
    <g>
      <circle class="cls-5" cx="1352" cy="598.77" r="129.06"/>
      <polygon class="cls-5" points="1418.48 822.24 1277.98 819.25 1292.92 667.05 1431.93 687.98 1458.83 756.73 1418.48 822.24"/>
    </g>
    <path class="cls-6" d="M1221.69,622.58c-33.59-134.52-20.76-134.63-13.26-144.66,13.94-18.65,37.78-24.1,37.58-42.95-.12-10.99-8.29-15.73-5.37-21.47,5.51-10.85,35.4,4.5,69.79-8.05,19.3-7.05,16.48-14.29,32.21-18.79,31.13-8.91,68.21,11.99,88.58,34.9,2.84,3.19,12.67,20.96,32.21,56.37,13.56,24.58,20.37,36.93,21.47,40.26,10.12,30.52,5.15,57.7,0,85.9-1.23,6.73-5.93,32.42-10.74,32.21-2.63-.12-4.3-7.93-5.37-13.42-9.14-47.07-1.02-63.76-10.74-83.21-9.35-18.72-32.24-34.07-51-32.21-2.22,.22-4.25,.67-42.95,16.11-12.58,5.02-12.37,4.97-13.42,5.37-39.82,14.96-78.99-18.06-96.63-2.68-9.81,8.55-22.84,25.22-17.88,38.39,4.32,11.47,.18,80.78-4.14,80.72-5.29-.08-8.67-16.06-10.35-22.77h0Z"/>
    <path class="cls-8" d="M1062.76,866.6c7.67-28.7,18.34-52.76,33.21-64.06,48.8-37.08,172.5-64.26,190.32-68.04,1.4-.3,2.15-.45,2.15-.45,0,0-11.96,76.23,49.73,76.9,90.56,1,111.7-76.9,111.7-76.9,0,0,.03,.01,.09,.03,4.27,1.7,168.5,67.17,180.98,129.53,1.52,7.61,2.88,15.87,4.11,24.54,.19,1.29,.37,2.59,.54,3.9-8.73,8.46-17.77,16.47-27.11,24-.04,.05-.07,.08-.12,.11-70.41,56.87-157.45,87.77-249.24,87.77-106.2,0-206.04-41.36-281.14-116.45-5.59-5.59-10.99-11.32-16.19-17.16,.33-1.24,.64-2.5,.97-3.72Z"/>
  </g>
  <polyline class="cls-1" points="1851.6 892.06 1920 1080 0 1080 68.4 892.06"/>
  <g>
    <path class="cls-3" d="M807.8,443.45c-14.34-23.08-47.78-28.52-72.62-17.5-24.84,11.01-42.02,34.49-53.69,59.03-11.67,24.54-19.02,50.98-31.01,75.36-35.3,71.74-106.79,118.59-151.76,184.7-33.79,49.67-51.68,109.98-50.45,170.05,.47,23.01,4.19,47.21,18.55,65.19,21.31,26.69,59.04,32.17,93.01,35.68,19.73,2.04,43.96,1.98,54.12-15.06,4.02-6.74-39.18-30.25-38.49-38.07,3.74-42.18,51.47-68.97,55.21-111.15,5.86,29.39-1.65,59.74-.47,89.68,1.19,29.95,15.95,63.82,45.27,70.02,9.05,1.91,19.27,.59,26.13-5.62,6.86-6.2,8.86-17.93,2.75-24.87,6.26,6.39,16.81,8.05,24.73,3.89s12.53-13.8,10.82-22.58c-1.26-6.45-5.43-11.88-9.03-17.38-19.54-29.79-24.63-68.6-13.43-102.42,19.79-59.78,84.79-98.8,95.81-160.8,8.18-46.04-15.15-98.22,9.6-137.89,11.16-17.88,30.1-29.15,45.21-43.84,15.11-14.69,26.93-37.17,18.28-56.39l-77.23-.08"/>
    <path class="cls-2" d="M569.63,971.18c-1.92,0-3.89-.51-5.8-1.53-4.38-2.35-7.69-7-8.42-11.84-1.22-8.06,2.62-15.88,5.7-22.17,8.44-17.19,16.77-35.58,18-54.68,1.34-20.86-7.12-40.19-21.55-49.26-10.73-6.73-25.05-8.47-40.33-4.87-13.53,3.18-25.69,9.69-39.05,17.23-1.06,.6-2.41,.23-3-.84-.6-1.06-.22-2.41,.83-3,13.15-7.43,26.13-14.38,40.21-17.69,16.44-3.86,31.95-1.94,43.69,5.43,15.79,9.91,25.05,30.82,23.61,53.27-1.28,19.91-9.81,38.75-18.44,56.34-2.96,6.03-6.31,12.87-5.3,19.57,.52,3.46,2.99,6.93,6.15,8.62,1.54,.82,3.88,1.57,6.31,.43,1.11-.52,2.42-.04,2.93,1.07s.04,2.42-1.07,2.93c-1.42,.66-2.92,.99-4.46,.99h0Z"/>
    <path class="cls-2" d="M738.59,441.94c-2.89,7.91,.96,16.77,6.3,23.28,5.34,6.51,12.19,11.74,16.9,18.72,9.86,14.63,8.38,34.64,.8,50.57-7.58,15.93-20.35,28.7-32.87,41.13,.93-5.33-1.77-10.71-5.44-14.68-3.67-3.97-8.29-6.92-12.4-10.44-19.12-16.39-25.1-46.26-13.77-68.75"/>
    <path class="cls-3" d="M477.43,912.36c-16.2-1.98-29.88,12.59-46.04,14.82-18.69,2.58-35.88-12.21-44.2-29.14s-10.45-36.16-16.17-54.14c-5.72-17.98-16.76-36.19-34.74-41.91-7.54-2.4-16.08-2.27-23.09,1.41s-12.15,11.19-11.97,19.11c.22,9.74,7.68,17.53,12.21,26.16,7.2,13.73,6.98,29.98,10.16,45.15,7.65,36.47,37.31,67.4,73.44,76.56,18.68,4.73,39.59,3.65,55.77-6.81s26.04-31.54,20.05-49.86"/>
  </g>
</svg>