<?xml version="1.0" encoding="UTF-8"?>
<svg id="Layer_1" data-name="Layer 1" xmlns="http://www.w3.org/2000/svg" viewBox="0 0 1920 1080">
  <defs>
    <style>
      .cls-1 {
        fill: #8c6239;
      }

      .cls-2 {
        fill: #2f2e41;
      }

      .cls-3 {
        fill: #fff;
      }

      .cls-4 {
        fill: #ff4ac9;
      }

      .cls-5 {
        fill: #3f3d56;
      }

      .cls-6 {
        fill: #b5272d;
      }

      .cls-7 {
        fill: #c1272d;
      }

      .cls-8 {
        fill: #a6272d;
      }

      .cls-9 {
        fill: #9f4c00;
      }

      .cls-10 {
        fill: #ffb735;
      }

      .cls-11 {
        fill: #1f8aff;
      }

      .cls-12 {
        fill: #34e900;
      }
    </style>
  </defs>
  <rect class="cls-7" width="1920" height="1079.08"/>
  <rect class="cls-6" x="0" y="624.56" width="1920" height="103.11"/>
  <rect class="cls-6" y="206.78" width="1920" height="103.11"/>
  <rect class="cls-8" x="1489" width="160" height="1080"/>
  <rect class="cls-8" x="253.44" width="160" height="1080"/>
  <rect class="cls-8" x="922.76" y="-.46" width="160" height="1080"/>
  <polyline class="cls-1" points="1851.93 892.06 1920.33 1080 .33 1080 68.74 892.06"/>
  <g id="Cat">
    <path class="cls-5" d="M1661.97,978.68l-202.56-5.75s15.25-91.21-33.67-116.52c-33.34-17.26-62.94-97.91-54.52-152.78,.11-.73,.23-1.46,.36-2.18,4.27-24.57,16.47-43.59,39.78-48.76,75.38-16.69,129.19-3.74,129.19-3.74,0,0,12.45,.16,30.91,3.63,.66,.12,1.31,.25,1.98,.39,52.24,10.24,148.8,46.69,152.98,176.11,5.75,177.8-64.45,149.61-64.45,149.61Z"/>
    <path class="cls-11" d="M1571.45,652.58c-.34,9.28-2.44,18.49-6.29,27.26-7.97,18.17-22.48,32.04-40.86,39.07-55.05,21.08-119.31,.17-151.81-22.5-.13,.72-2.71,14.3-2.82,15.03,14.39,9.84,84.81,19.34,98.17,19.34,20.28,0,39.81-3.37,57.18-10.02,18.88-7.23,33.78-21.48,41.96-40.14,3.9-8.9,6.06-18.26,6.45-27.67-.67-.14-1.32-.27-1.98-.39,0,0,0,0,0,0Z"/>
    <path class="cls-5" d="M1586.43,664.39l-32.29-81.18s38.75-66.42,8.3-73.8c-30.44-7.38-61.81,32.29-61.81,32.29,0,0-58.12-20.3-80.26-3.69,0,0-36.9-51.66-59.04-41.51-22.14,10.15,7.87,83.29,7.87,83.29,0,0-45.69,67.08-10.63,105.83,35.06,38.75,166.98,70.11,227.86-21.22h0Z"/>
    <path class="cls-5" d="M1655.68,930.09c10.99,4.89,22.48,9.88,34.5,9.4s24.67-8.22,26.55-20.1c.97-6.14-.95-12.72,1.4-18.47,3.16-7.74,13.36-10.72,21.28-8.07,7.92,2.65,13.75,9.49,17.92,16.73,7.81,13.54,10.94,31.32,2.57,44.52-7.26,11.45-21.03,16.62-33.83,21.05-17.06,5.91-36.1,11.77-52.63,4.52-16.62-7.3-25.68-28.39-19.52-45.47"/>
    <path class="cls-11" d="M1473.8,627.89s-19.86-7.95-32.78,1.99l14.9,22.84s17.88-24.83,17.88-24.83Z"/>
    <path class="cls-5" d="M1369.51,732.18l36.75,195.66s-55.62,56.61,15.89,55.62c71.51-.99,50.65-37.74,50.65-37.74l-22.84-169.84"/>
    <path class="cls-2" d="M1420.35,984.9c-19.37,0-31.08-4.44-34.83-13.21-6.83-15.97,15.4-40.32,19.21-44.33l-24.71-146.28,2.82-.48,24.95,147.71-.51,.52c-.26,.26-25.68,26.41-19.13,41.73,3.37,7.87,14.78,11.73,33.98,11.45,26.69-.37,43.91-5.96,49.78-16.18,5.29-9.2-.3-19.33-.36-19.43l-.13-.24-.04-.27-15.89-118.19,2.84-.38,15.86,117.93c.94,1.79,5.88,12.11,.22,21.98-6.48,11.31-24.06,17.25-52.24,17.64-.62,0-1.22,.01-1.82,.01Z"/>
    <path class="cls-5" d="M1462.88,732.18l36.75,195.66s-55.62,56.61,15.89,55.62c71.51-.99,50.65-37.74,50.65-37.74l-22.84-169.84"/>
    <path class="cls-2" d="M1513.71,984.9c-19.37,0-31.08-4.44-34.83-13.21-6.82-15.95,15.36-40.28,19.2-44.32l-14.76-78.73,2.81-.53,15.04,80.19-.52,.53c-.26,.26-25.68,26.41-19.13,41.73,3.37,7.87,14.78,11.74,33.98,11.45,26.72-.37,43.94-5.97,49.8-16.2,5.29-9.23-.31-19.3-.37-19.4l-.14-.24-22.88-170.11,2.84-.38,22.81,169.58c.94,1.79,5.88,12.11,.22,21.98-6.48,11.31-24.06,17.25-52.24,17.64-.62,0-1.22,.01-1.82,.01Z"/>
  </g>
  <g id="Cat-2" data-name="Cat">
    <path class="cls-3" d="M282.42,887.11c4.18-129.42,100.74-165.87,152.98-176.11,.67-.14,1.32-.27,1.98-.39,18.45-3.47,30.91-3.63,30.91-3.63,0,0,53.8-12.94,129.19,3.74,23.31,5.16,35.51,24.18,39.78,48.76,.13,.72,.25,1.44,.36,2.18,8.42,54.86-21.18,135.51-54.52,152.78-48.92,25.32-33.67,116.52-33.67,116.52l-202.56,5.75s-70.2,28.2-64.45-149.61Z"/>
    <path class="cls-12" d="M437.38,710.62c-.66,.12-1.31,.25-1.98,.39,.39,9.42,2.54,18.77,6.45,27.67,8.18,18.65,23.08,32.91,41.96,40.14,17.37,6.65,36.9,10.02,57.18,10.02,13.36,0,83.78-9.5,98.17-19.34-.11-.73-2.69-14.32-2.82-15.03-32.5,22.67-96.76,43.57-151.81,22.5-18.38-7.03-32.9-20.91-40.86-39.07-3.84-8.77-5.95-17.99-6.29-27.26,0,0,0,0,0,0Z"/>
    <path class="cls-3" d="M422.4,722.43c60.89,91.33,192.81,59.96,227.86,21.22,35.06-38.75-10.63-105.83-10.63-105.83,0,0,30.01-73.14,7.87-83.29-22.14-10.15-59.04,41.51-59.04,41.51-22.14-16.61-80.26,3.69-80.26,3.69,0,0-31.37-39.67-61.81-32.29-30.44,7.38,8.3,73.8,8.3,73.8l-32.29,81.18h0Z"/>
    <path class="cls-3" d="M354.93,992.24c6.16,17.08-2.9,38.17-19.52,45.47-16.53,7.26-35.58,1.39-52.63-4.52-12.81-4.44-26.57-9.61-33.83-21.05-8.37-13.2-5.24-30.98,2.57-44.52,4.17-7.24,10-14.08,17.92-16.73,7.92-2.65,18.12,.33,21.28,8.07,2.35,5.75,.43,12.33,1.4,18.47,1.87,11.88,14.52,19.63,26.55,20.1s23.51-4.51,34.5-9.4"/>
    <path class="cls-12" d="M552.91,710.76l14.9-22.84c-12.91-9.93-32.78-1.99-32.78-1.99,0,0,17.88,24.83,17.88,24.83Z"/>
    <path class="cls-3" d="M558.87,833.91l-22.84,169.84s-20.86,36.75,50.65,37.74c71.51,.99,15.89-55.62,15.89-55.62l36.75-195.66"/>
    <path class="cls-2" d="M586.66,1042.93c-28.18-.39-45.76-6.33-52.24-17.64-5.66-9.88-.72-20.2,.22-21.98l15.86-117.93,2.84,.38-15.89,118.19-.04,.27-.13,.24c-.06,.1-5.64,10.23-.36,19.43,5.87,10.21,23.09,15.81,49.78,16.18,19.2,.28,30.62-3.59,33.98-11.45,6.55-15.32-18.87-41.47-19.13-41.73l-.51-.52,24.95-147.71,2.82,.48-24.71,146.28c3.81,4.01,26.04,28.36,19.21,44.33-3.75,8.77-15.46,13.21-34.83,13.21-.6,0-1.21,0-1.82-.01Z"/>
    <path class="cls-3" d="M465.51,833.91l-22.84,169.84s-20.86,36.75,50.65,37.74c71.51,.99,15.89-55.62,15.89-55.62l36.75-195.66"/>
    <path class="cls-2" d="M493.3,1042.93c-28.18-.39-45.76-6.33-52.24-17.64-5.66-9.88-.72-20.2,.22-21.98l22.81-169.58,2.84,.38-22.88,170.11-.14,.24c-.06,.1-5.65,10.18-.37,19.4,5.86,10.23,23.08,15.83,49.8,16.2,19.2,.29,30.61-3.59,33.98-11.45,6.55-15.32-18.87-41.47-19.13-41.73l-.52-.53,15.04-80.19,2.81,.53-14.76,78.73c3.84,4.04,26.02,28.36,19.2,44.32-3.75,8.77-15.46,13.21-34.83,13.21-.6,0-1.21,0-1.82-.01Z"/>
  </g>
  <g id="Cat-3" data-name="Cat">
    <path class="cls-10" d="M913.68,866.77c2.09-64.71,50.37-82.93,76.49-88.05,.33-.07,.66-.13,.99-.19,9.23-1.73,15.45-1.81,15.45-1.81,0,0,26.9-6.47,64.59,1.87,11.66,2.58,17.75,12.09,19.89,24.38,.06,.36,.12,.72,.18,1.09,4.21,27.43-10.59,67.76-27.26,76.39-24.46,12.66-16.84,58.26-16.84,58.26l-101.28,2.88s-35.1,14.1-32.22-74.8Z"/>
    <path class="cls-4" d="M991.16,778.52c-.33,.06-.66,.12-.99,.19,.19,4.71,1.27,9.39,3.22,13.84,4.09,9.33,11.54,16.45,20.98,20.07,8.69,3.33,18.45,5.01,28.59,5.01,6.68,0,41.89-4.75,49.08-9.67-.05-.37-1.35-7.16-1.41-7.52-16.25,11.33-48.38,21.79-75.91,11.25-9.19-3.52-16.45-10.45-20.43-19.54-1.92-4.39-2.97-8.99-3.14-13.63,0,0,0,0,0,0Z"/>
    <path class="cls-10" d="M983.67,784.43c30.44,45.67,96.4,29.98,113.93,10.61,17.53-19.37-5.32-52.91-5.32-52.91,0,0,15-36.57,3.93-41.64-11.07-5.07-29.52,20.76-29.52,20.76-11.07-8.3-40.13,1.85-40.13,1.85,0,0-15.68-19.83-30.9-16.14-15.22,3.69,4.15,36.9,4.15,36.9l-16.14,40.59h0Z"/>
    <path class="cls-10" d="M949.94,919.33c3.08,8.54-1.45,19.09-9.76,22.74-8.26,3.63-17.79,.7-26.32-2.26-6.4-2.22-13.29-4.8-16.92-10.53-4.19-6.6-2.62-15.49,1.28-22.26,2.09-3.62,5-7.04,8.96-8.36,3.96-1.33,9.06,.17,10.64,4.03,1.17,2.87,.22,6.17,.7,9.23,.94,5.94,7.26,9.81,13.27,10.05s11.75-2.26,17.25-4.7"/>
    <path class="cls-4" d="M1048.93,778.59l7.45-11.42c-6.46-4.97-16.39-.99-16.39-.99,0,0,8.94,12.42,8.94,12.42Z"/>
    <path class="cls-10" d="M1051.91,840.17l-11.42,84.92s-10.43,18.37,25.33,18.87c35.76,.5,7.95-27.81,7.95-27.81l18.37-97.83"/>
    <path class="cls-9" d="M1065.8,944.67c-14.09-.2-22.88-3.16-26.12-8.82-2.83-4.94-.36-10.1,.11-10.99l7.93-58.97,1.42,.19-7.95,59.1-.02,.14-.07,.12c-.03,.05-2.82,5.12-.18,9.71,2.94,5.11,11.54,7.9,24.89,8.09,9.6,.14,15.31-1.79,16.99-5.73,3.28-7.66-9.44-20.73-9.56-20.87l-.26-.26,12.48-73.86,1.41,.24-12.36,73.14c1.91,2,13.02,14.18,9.61,22.17-1.87,4.38-7.73,6.6-17.41,6.6-.3,0-.6,0-.91,0Z"/>
    <path class="cls-10" d="M1005.22,840.17l-11.42,84.92s-10.43,18.37,25.33,18.87c35.76,.5,7.95-27.81,7.95-27.81l18.37-97.83"/>
    <path class="cls-9" d="M1019.12,944.67c-14.09-.2-22.88-3.16-26.12-8.82-2.83-4.94-.36-10.1,.11-10.99l11.4-84.79,1.42,.19-11.44,85.06-.07,.12c-.03,.05-2.83,5.09-.18,9.7,2.93,5.11,11.54,7.91,24.9,8.1,9.6,.15,15.31-1.79,16.99-5.73,3.28-7.66-9.44-20.73-9.56-20.87l-.26-.27,7.52-40.1,1.41,.26-7.38,39.37c1.92,2.02,13.01,14.18,9.6,22.16-1.87,4.38-7.73,6.6-17.41,6.6-.3,0-.6,0-.91,0Z"/>
  </g>
</svg>