    <svg
      viewBox="0 0 960 540"
      xmlns="http://www.w3.org/2000/svg"
      xmlns:xlink="http://www.w3.org/1999/xlink"
      version="1.1"
    >
      <rect
        x="0"
        y="0"
        width="960"
        height="540"
        fill="var(--colour-base)"
      ></rect>
      <g transform="translate(960, 0)">
        <path
          d="M0 486C-68.9 481.9 -137.8 477.8 -183.3 442.5C-228.8 407.3 -250.8 340.9 -297 297C-343.2 253.1 -413.5 231.7 -449 186C-484.5 140.2 -485.3 70.1 -486 0L0 0Z"
          fill="var(--colour-overlay)"
        ></path>
      </g>
      <g transform="translate(0, 540)">
        <path
          d="M0 -486C59.4 -466.8 118.7 -447.7 176 -425C233.3 -402.3 288.6 -376.1 336.6 -336.6C384.6 -297.1 425.3 -244.3 449 -186C472.7 -127.7 479.3 -63.8 486 0L0 0Z"
          fill="var(--colour-overlay)"
        ></path>
      </g>
    </svg>